<svg xmlns="http://www.w3.org/2000/svg" viewBox="0 0 40 40" id="Bbc"><path d="M21.25 21.25c0 .93-1.15.87-1.15.87h-1.16v-1.67h1.16c1.19 0 1.15.8 1.15.8m-2.31-3.36h.88c.92 0 .88.72.88.72 0 .85-1 .87-1 .87h-.75ZM21 19.81a1.37 1.37 0 0 0 .78-1.24S22 17.11 20 16.93h-2.15v6.14h2.47s2.06 0 2.06-1.73A1.59 1.59 0 0 0 21 19.81m-5.58-4.09h9.08v8.56h-9.04Zm-4.67 5.53c0 .93-1.15.87-1.15.87H8.48v-1.67h1.16c1.18 0 1.15.8 1.15.8m-2.31-3.36h.88c.91 0 .88.72.88.72 0 .85-1 .87-1 .87h-.76v-1.59Zm2.1 1.92a1.37 1.37 0 0 0 .78-1.24s.12-1.46-1.82-1.64H7.38v6.14h2.48s2.06 0 2.06-1.73a1.59 1.59 0 0 0-1.34-1.53M5 15.72h9.07v8.56H5Zm28.15 1.65v1.13a5.16 5.16 0 0 0-2.33-.69A2.3 2.3 0 0 0 28.43 20a2.17 2.17 0 0 0 2.36 2.17 4 4 0 0 0 2.41-.76v1.18a4.91 4.91 0 0 1-4 .25 3.07 3.07 0 0 1 .44-5.84 4.33 4.33 0 0 1 1.81-.14 6.67 6.67 0 0 1 1.7.49m-7.22 6.91H35v-8.54h-9.07Z" fill="#080d0f" class="color000000 svgShape"></path></svg>